<svg width="122" height="167" viewBox="0 0 122 167" fill="none" xmlns="http://www.w3.org/2000/svg">
<path d="M63 153H54V162H63V153Z" fill="#FBC3AA"/>
<path d="M73 166H46C46 161.596 50.8993 158 56.9788 158H73V166Z" fill="#DD3142"/>
<path d="M64 166C64 161.038 70.0568 157 77.5 157C84.9432 157 91 161.038 91 166H64Z" fill="#DD3142"/>
<path d="M90.1222 166.989H46.7266C46.2046 166.989 45.787 166.703 45.787 166.344C45.787 165.986 46.2046 165.699 46.7266 165.699H90.1222C90.6442 165.699 91.0618 165.986 91.0618 166.344C91.0618 166.703 90.6442 166.989 90.1222 166.989Z" fill="#212D47"/>
<path d="M78 159C79.6569 159 81 158.776 81 158.5C81 158.224 79.6569 158 78 158C76.3431 158 75 158.224 75 158.5C75 158.776 76.3431 159 78 159Z" fill="white"/>
<path d="M60 159C60 158.846 60.0444 158.693 60.1333 158.539C60.4889 158.047 61.2889 157.863 62 158.108" stroke="#D32A3B" stroke-width="3" stroke-miterlimit="10" stroke-linecap="round" stroke-linejoin="round"/>
<path d="M62 159C62 158.846 62.0444 158.693 62.1333 158.539C62.4889 158.047 63.2889 157.863 64 158.108" stroke="#D32A3B" stroke-width="3" stroke-miterlimit="10" stroke-linecap="round" stroke-linejoin="round"/>
<path d="M64 159C64 158.846 64.0444 158.693 64.1333 158.539C64.4889 158.047 65.2889 157.863 66 158.108" stroke="#D32A3B" stroke-width="3" stroke-miterlimit="10" stroke-linecap="round" stroke-linejoin="round"/>
<path d="M114.977 63.0596H110.209C108.469 63.0596 107.077 62.1036 107.077 60.9086V42.2188C107.077 41.0238 108.469 40.0678 110.209 40.0678H114.977C116.717 40.0678 118.109 41.0238 118.109 42.2188V60.9086C118.109 62.0797 116.717 63.0596 114.977 63.0596Z" fill="#BCBCBC"/>
<path d="M118.004 63.0596H113.237C111.497 63.0596 110.105 62.1036 110.105 60.9086V42.2188C110.105 41.0238 111.497 40.0678 113.237 40.0678H118.004C119.744 40.0678 121.136 41.0238 121.136 42.2188V60.9086C121.136 62.0797 119.744 63.0596 118.004 63.0596Z" fill="#F7F7F7"/>
<path d="M102.107 70.3682V80.7797C102.107 85.4504 96.6786 89.3912 89.8214 89.5128C82.75 89.6345 76.9286 85.7423 76.9286 80.95V66.7436C76.9286 64.1164 73.8214 62 69.9643 62C66.1071 62 63 64.1164 63 66.7436V80.95C63 90.9237 74.8571 99 89.5 99C104.143 99 116 90.9237 116 80.95V70.3682H102.107Z" fill="#DD3142"/>
<path d="M102.107 70.3682V80.7797C102.107 85.4504 96.6786 89.3912 89.8214 89.5128C82.75 89.6345 76.9286 85.7423 76.9286 80.95V66.7436C76.9286 64.1164 73.8214 62 69.9643 62C66.1071 62 63 64.1164 63 66.7436V80.95C63 90.9237 74.8571 99 89.5 99C104.143 99 116 90.9237 116 80.95V70.3682H102.107Z" fill="#DD3142"/>
<path d="M69.8777 64.4127C71.7719 64.4127 73.3382 65.4606 73.3382 66.7279V80.9602C73.3382 83.909 75.0503 86.6629 78.183 88.7587C81.3157 90.8546 85.4319 92 89.8395 92C89.9852 92 90.0945 92 90.2402 92C99.0919 91.8538 106.341 86.8335 106.341 80.814V72.8205L109 70.3834H102.698V80.814C102.698 85.4931 97.1613 89.4411 90.1674 89.563C82.9549 89.6848 77.0174 85.7855 77.0174 80.9846V66.7522C77.0174 64.1202 73.8482 62 69.9141 62C68.8942 62 67.9107 62.1462 67 62.4143C68.4206 63.6084 69.477 64.4127 69.8777 64.4127Z" fill="#D82B45"/>
<path d="M67 105H48V155H67V105Z" fill="#212D47"/>
<path d="M67 152H48V155H67V152Z" fill="#2D3854"/>
<path d="M55 105H36V155H55V105Z" fill="#2D3854"/>
<path d="M50 152H41V161H50V152Z" fill="#FBC3AA"/>
<path d="M55 152H36V155H55V152Z" fill="#394663"/>
<path d="M66.3388 113H35.6612C31.9885 113 29 110.835 29 108.174V104H73V108.174C73 110.835 70.0115 113 66.3388 113Z" fill="#2D3854"/>
<path d="M41 101H11.1855C4.02998 101 -1.28243 95.0988 0.271538 88.8645L4.21067 72.9457C5.80078 66.5686 12.1251 62 19.4613 62H31.3871L41 101Z" fill="#22314C"/>
<path d="M17 97C11.7776 97 7.66398 93.876 8.02168 90.2229L8.66554 84H25.3345L25.9783 90.2229C26.336 93.876 22.2225 97 17 97Z" fill="#2D3854"/>
<path d="M73 99H29V106H73V99Z" fill="#DD3142"/>
<path d="M71.9855 103H28.0487C27.4701 103 27 102.691 27 102.311V68.1322C27 64.7333 31.1948 62 36.3298 62H66.6697C70.1774 62 72.998 63.8777 72.998 66.1594V102.311C73.0342 102.691 72.5641 103 71.9855 103Z" fill="#E53E46"/>
<path d="M56.431 69H48.3707C46.5021 69 45 67.937 45 66.6148V62H62V65.0593C62 67.237 59.5086 69 56.431 69Z" fill="#DD3142"/>
<path d="M61.1918 58L53 58.6283L53.2137 62.1082H61.1918C67.674 62.1082 72.9452 65.6847 72.9452 70.0829V100C76.2932 100 79 98.1634 79 95.8918V70.0829C79 63.4131 71.0575 58 61.1918 58Z" fill="#2D3854"/>
<path d="M76 69.4062C76 64.3072 69.767 60.1749 62.0761 60.1749H55.8067V58H53V62.1082H61.1648C67.7987 62.1082 73.1933 65.6847 73.1933 70.0829V100C74.2139 100 75.1616 99.8308 76 99.565V69.4062Z" fill="#25314C"/>
<path d="M55.325 67H48.675C46.645 67 45 65.8537 45 64.439V51H59V64.439C59 65.8537 57.355 67 55.325 67Z" fill="#FBC3AA"/>
<path opacity="0.76" d="M49.725 51.5366H59V51H45V64.439C45 65.8537 46.645 67 48.675 67H49.76V51.5366H49.725Z" fill="#F2AD91"/>
<path d="M45 57.7984C47.625 58.1043 52.14 58.2454 56.935 56.834C57.705 56.5987 58.37 56.3635 59 56.0812V51H45V57.7984Z" fill="#ED9C80"/>
<path d="M34.8419 59H29.2304C26.3208 59 24 60.6209 24 62.5994V63.5767L27.1175 62.7663C32.0708 62.7663 36.1235 65.0785 36.1235 68.4872V96.2576C36.1235 98.3314 38.5482 100 41.5618 100C44.5753 100 47 98.3314 47 96.2576V67.3192C46.9307 62.7186 41.5271 59 34.8419 59Z" fill="#2D3854"/>
<path d="M40 67.8294V99C37.64 98.4531 36 97.1217 36 95.5287V72.014C38.2 70.7063 39.6 68.8993 39.6 66.9259C39.6 66.2601 39.44 65.6182 39.16 65C39.68 65.8559 40 66.8308 40 67.8294Z" fill="#25314C"/>
<path d="M111.114 71.5919C116.495 71.5919 120.858 68.5958 120.858 64.8999C120.858 61.204 116.495 58.2079 111.114 58.2079C105.732 58.2079 101.37 61.204 101.37 64.8999C101.37 68.5958 105.732 71.5919 111.114 71.5919Z" fill="#FBC3AA"/>
<path opacity="0.76" d="M115.22 69.3692C109.095 69.3692 104.119 65.9515 104.119 61.7451C104.119 61.1476 104.224 60.574 104.398 60.0243C102.518 61.2432 101.335 62.9879 101.335 64.8999C101.335 68.6044 105.685 71.5919 111.079 71.5919C114.246 71.5919 117.03 70.5642 118.84 68.9629C117.726 69.2258 116.508 69.3692 115.22 69.3692Z" fill="#F2AD91"/>
<path d="M60 166H33C33 161.596 37.8993 158 43.9788 158H60V166Z" fill="#DD3142"/>
<path d="M51 166C51 161.038 56.8324 157 64 157C71.1676 157 77 161.038 77 166H51Z" fill="#E53E46"/>
<path d="M77.4899 166.989H34.0943C33.5723 166.989 33.1547 166.703 33.1547 166.344C33.1547 165.986 33.5723 165.699 34.0943 165.699H77.4899C78.0119 165.699 78.4295 165.986 78.4295 166.344C78.3947 166.703 77.9771 166.989 77.4899 166.989Z" fill="#212D47"/>
<path d="M68 159C69.6569 159 71 158.776 71 158.5C71 158.224 69.6569 158 68 158C66.3431 158 65 158.224 65 158.5C65 158.776 66.3431 159 68 159Z" fill="white"/>
<path d="M47 159C47 158.846 47.0445 158.693 47.1333 158.539C47.4889 158.047 48.2889 157.863 49 158.108" stroke="#D32A3B" stroke-width="3" stroke-miterlimit="10" stroke-linecap="round" stroke-linejoin="round"/>
<path d="M49 159C49 158.846 49.0444 158.693 49.1333 158.539C49.4889 158.047 50.2889 157.863 51 158.108" stroke="#D32A3B" stroke-width="3" stroke-miterlimit="10" stroke-linecap="round" stroke-linejoin="round"/>
<path d="M51 159C51 158.846 51.0444 158.693 51.1333 158.539C51.4889 158.047 52.2889 157.863 53 158.108" stroke="#D32A3B" stroke-width="3" stroke-miterlimit="10" stroke-linecap="round" stroke-linejoin="round"/>
<path d="M56.5477 53.739C44.342 55.261 32.5647 49.9692 30.2806 41.9613L23 16.6732L76.9975 10L82.4223 28.8724C85.777 40.4159 74.1781 51.5614 56.5477 53.739Z" fill="#FBC3AA"/>
<path opacity="0.76" d="M45.2953 41.9893L37.9476 16.6976L78 11.7798L77.4957 10L23 16.6742L30.3477 41.9659C32.6889 49.975 44.539 55.2441 56.8572 53.7453C58.0098 53.6048 59.1624 53.4175 60.243 53.2067C52.7872 51.5674 46.8802 47.399 45.2953 41.9893Z" fill="#F2AD91"/>
<path d="M78 11.4629L76.0353 4L22.4518 12.809C20.7728 13.0924 19.7369 14.1552 20.0584 15.2888L26.8099 39L35.669 37.89L31.5252 19.7287L78 11.4629Z" fill="#C65132"/>
<path d="M59 41.2C54.963 41.2 51.1852 40.7636 48 40C49.4074 43.4691 53.7778 46 59 46C64.2222 46 68.5556 43.4691 70 40C66.7778 40.7418 63.037 41.2 59 41.2Z" fill="white"/>
<path d="M47.0534 31C46.7404 30.0806 47.8359 29.1831 49.479 29.0299C51.1221 28.8548 52.7261 29.4677 53 30.3871" stroke="#3F2E21" stroke-width="4" stroke-miterlimit="10" stroke-linecap="round" stroke-linejoin="round"/>
<path d="M43 28L52 24" stroke="#DD6944" stroke-width="8" stroke-miterlimit="10" stroke-linecap="round" stroke-linejoin="round"/>
<path d="M70 27.3871C69.687 26.4677 68.1221 25.8548 66.479 26.0299C64.8358 26.205 63.7404 27.0806 64.0534 28" stroke="#3F2E21" stroke-width="4" stroke-miterlimit="10" stroke-linecap="round" stroke-linejoin="round"/>
<path d="M72 24L62 23" stroke="#DD6944" stroke-width="8" stroke-miterlimit="10" stroke-linecap="round" stroke-linejoin="round"/>
<path d="M75 12.9454C75.5 14.3644 79.3333 24 79.3333 24H81L77.4333 11L75 12.9454Z" fill="#C65132"/>
<path d="M27.5 41C32.1945 41 36 38.5376 36 35.5C36 32.4624 32.1945 30 27.5 30C22.8055 30 19 32.4624 19 35.5C19 38.5376 22.8055 41 27.5 41Z" fill="#FBC3AA"/>
<path d="M28.5 39C30.9852 39 33 37.6568 33 36C33 34.3432 30.9852 33 28.5 33C26.0148 33 24 34.3432 24 36C24 37.6568 26.0148 39 28.5 39Z" fill="#F2AD91"/>
<g filter="url(#filter0_i)">
<path d="M81.5795 0C85.7871 7.22052 80.3315 15.3113 69.3848 18.0631C58.438 20.8384 46.1719 17.2399 42 10.0194L81.5795 0Z" fill="#DD6944"/>
</g>
<g filter="url(#filter1_i)">
<path d="M57.1924 3C61.2606 8.35254 58.2273 14.9573 50.4476 17.7563C42.6679 20.5553 33.0683 18.4683 29 13.1158L57.1924 3Z" fill="#DD6944"/>
</g>
<path d="M35.9584 72V67.9149C35.9584 64.5957 31.9951 62.3443 27.075 62.3443L24 63.1335V62.1818C24 61.6248 24.205 61.0909 24.5467 60.6035C25.8108 60.2089 27.2117 60 28.715 60C30.6284 60 32.4051 60.3482 33.9426 60.9749C36.1976 61.8801 37.9059 63.3656 38.6234 65.1064C38.8626 65.7099 38.9993 66.3366 38.9993 66.9865C39.0335 68.9594 37.8376 70.7234 35.9584 72Z" fill="#25314C"/>
<path d="M40.5 113C46.2989 113 51 110.09 51 106.5C51 102.91 46.2989 100 40.5 100C34.7011 100 30 102.91 30 106.5C30 110.09 34.7011 113 40.5 113Z" fill="#FBC3AA"/>
<path d="M52.8887 108.803L47.5931 107.125C46.1858 106.669 45.5933 105.566 46.2969 104.655L47.556 103L55.4069 105.494C56.8142 105.95 57.4067 107.053 56.7031 107.964C56.0365 108.899 54.333 109.259 52.8887 108.803Z" fill="#F2AD91"/>
<path d="M42.0774 113.573L43.4354 109.567C43.7837 108.481 45.4203 107.803 47.0917 108.051L49.7033 108.436C49.9122 108.459 50.0515 108.594 49.9819 108.73L48.0667 114.433C47.7185 115.519 46.0819 116.197 44.4104 115.949C42.7738 115.7 41.6944 114.636 42.0774 113.573Z" fill="#F2AD91"/>
<path d="M44.8608 107.373C48.0816 105.141 47.6058 101.603 43.836 99.7506C36.3697 96.0698 31.136 90.4654 30.0746 84.0299C29.1962 78.8768 31.0628 73.9374 34.8326 69.8054C36.4063 68.0956 36.3697 65.8871 34.613 64.2485C31.3556 61.1614 24.2919 61.2801 21.3274 64.4385C15.874 70.304 13.1657 77.3095 14.2271 84.6474C15.6179 94.2175 23.2671 102.529 34.3202 107.967C37.5775 109.558 42.1159 109.273 44.8608 107.373Z" fill="#DD3142"/>
<path d="M34.9014 69.5302C35.8874 68.4495 36.2161 67.2007 35.9239 66C34.3901 67.0567 32.8198 68.0653 32.3816 68.5456C28.1089 73.2525 26.3194 78.6558 27.2324 84.1312C28.3645 90.9033 33.7693 97.1952 42.0957 101.35C42.9721 101.782 45.6015 103.703 46.8431 105C47.4274 103.127 46.3684 101.086 43.8486 99.8128C36.3987 96.0905 31.1765 90.423 30.1174 83.915C29.2775 78.6798 31.1034 73.7087 34.9014 69.5302Z" fill="#D82B45"/>
<path d="M56.5 80C58.4328 80 60 78.8808 60 77.5C60 76.1192 58.4328 75 56.5 75C54.5668 75 53 76.1192 53 77.5C53 78.8808 54.5668 80 56.5 80Z" fill="#DD3142"/>
<path d="M50.5 85C51.3283 85 52 84.5522 52 84C52 83.4478 51.3283 83 50.5 83C49.6717 83 49 83.4478 49 84C49 84.5522 49.6717 85 50.5 85Z" fill="#DD3142"/>
<path d="M64.5 82C65.3283 82 66 81.3283 66 80.5C66 79.6717 65.3283 79 64.5 79C63.6717 79 63 79.6717 63 80.5C63 81.3283 63.6717 82 64.5 82Z" fill="#DD3142"/>
<path d="M61 86C62.1044 86 63 85.5522 63 85C63 84.4478 62.1044 84 61 84C59.8956 84 59 84.4478 59 85C59 85.5522 59.8956 86 61 86Z" fill="#DD3142"/>
<path opacity="0.69" d="M52.4763 34.7147C54.6695 34.2285 56.2343 33.2907 55.9711 32.6201C55.7083 31.9492 53.7172 31.7994 51.524 32.2853C49.3308 32.7715 47.766 33.7091 48.0288 34.3799C48.2916 35.0508 50.2827 35.2006 52.4763 34.7147Z" fill="#F2AD91"/>
<path opacity="0.69" d="M69.2149 31.9261C71.4209 31.6698 73.1126 30.8236 72.9941 30.0361C72.8753 29.2486 70.9907 28.8177 68.7847 29.0739C66.5788 29.3302 64.8871 30.1764 65.0059 30.9639C65.1244 31.7514 67.009 32.1823 69.2149 31.9261Z" fill="#F2AD91"/>
<path d="M115.777 45.5409C116.623 45.5409 117.308 45.0701 117.308 44.4893C117.308 43.9085 116.623 43.4377 115.777 43.4377C114.931 43.4377 114.246 43.9085 114.246 44.4893C114.246 45.0701 114.931 45.5409 115.777 45.5409Z" fill="#BCBCBC"/>
<defs>
<filter id="filter0_i" x="42" y="0" width="41" height="23" filterUnits="userSpaceOnUse" color-interpolation-filters="sRGB">
<feFlood flood-opacity="0" result="BackgroundImageFix"/>
<feBlend mode="normal" in="SourceGraphic" in2="BackgroundImageFix" result="shape"/>
<feColorMatrix in="SourceAlpha" type="matrix" values="0 0 0 0 0 0 0 0 0 0 0 0 0 0 0 0 0 0 127 0" result="hardAlpha"/>
<feOffset dy="4"/>
<feGaussianBlur stdDeviation="2"/>
<feComposite in2="hardAlpha" operator="arithmetic" k2="-1" k3="1"/>
<feColorMatrix type="matrix" values="0 0 0 0 0 0 0 0 0 0 0 0 0 0 0 0 0 0 0.25 0"/>
<feBlend mode="normal" in2="shape" result="effect1_innerShadow"/>
</filter>
<filter id="filter1_i" x="29" y="3" width="30" height="20" filterUnits="userSpaceOnUse" color-interpolation-filters="sRGB">
<feFlood flood-opacity="0" result="BackgroundImageFix"/>
<feBlend mode="normal" in="SourceGraphic" in2="BackgroundImageFix" result="shape"/>
<feColorMatrix in="SourceAlpha" type="matrix" values="0 0 0 0 0 0 0 0 0 0 0 0 0 0 0 0 0 0 127 0" result="hardAlpha"/>
<feOffset dy="4"/>
<feGaussianBlur stdDeviation="2"/>
<feComposite in2="hardAlpha" operator="arithmetic" k2="-1" k3="1"/>
<feColorMatrix type="matrix" values="0 0 0 0 0 0 0 0 0 0 0 0 0 0 0 0 0 0 0.25 0"/>
<feBlend mode="normal" in2="shape" result="effect1_innerShadow"/>
</filter>
</defs>
</svg>
